<?xml version="1.0" encoding="UTF-8"?>
<!DOCTYPE svg PUBLIC "-//W3C//DTD SVG 1.1//EN" "http://www.w3.org/Graphics/SVG/1.1/DTD/svg11.dtd">
<svg xmlns="http://www.w3.org/2000/svg" version="1.1" viewBox="0 0 800 800" width="800px" height="800px" style="shape-rendering:geometricPrecision; text-rendering:geometricPrecision; image-rendering:optimizeQuality; fill-rule:evenodd; clip-rule:evenodd" xmlns:xlink="http://www.w3.org/1999/xlink">
<g><path style="opacity:1" fill="#df03d9" d="M 438.5,154.5 C 438.587,157.598 438.087,157.932 437,155.5C 433.725,177.43 436.892,198.597 446.5,219C 446.112,220.808 446.112,222.475 446.5,224C 470.789,292.573 491.789,362.573 509.5,434C 513.324,445.812 518.49,456.979 525,467.5C 539.278,484.425 557.445,492.092 579.5,490.5C 577.703,486.52 578.703,485.52 582.5,487.5C 594.692,484.713 606.025,479.879 616.5,473C 617.701,472.097 618.535,470.931 619,469.5C 619.383,470.056 619.883,470.389 620.5,470.5C 621.674,471.514 622.34,472.847 622.5,474.5C 623.218,476.137 623.384,477.803 623,479.5C 604.02,503.715 579.854,511.215 550.5,502C 528.857,489.925 515.024,471.758 509,447.5C 496.362,395.283 481.695,343.616 465,292.5C 448.613,245.728 426.946,201.728 400,160.5C 391.595,150.273 383.429,139.939 375.5,129.5C 379.268,121.468 383.935,113.968 389.5,107C 398.84,102.509 407.006,104.009 414,111.5C 422.179,125.861 430.345,140.194 438.5,154.5 Z"/></g>
<g><path style="opacity:1" fill="#bb27d9" d="M 375.5,129.5 C 383.429,139.939 391.595,150.273 400,160.5C 426.946,201.728 448.613,245.728 465,292.5C 481.695,343.616 496.362,395.283 509,447.5C 515.024,471.758 528.857,489.925 550.5,502C 579.854,511.215 604.02,503.715 623,479.5C 623.384,477.803 623.218,476.137 622.5,474.5C 624.588,476.336 625.921,478.669 626.5,481.5C 620.776,486.721 615.109,492.221 609.5,498C 602.684,503.02 595.351,506.854 587.5,509.5C 559.358,515.513 536.858,506.847 520,483.5C 514.399,474.966 509.899,465.966 506.5,456.5C 498.872,428.991 491.706,401.325 485,373.5C 480.124,356.638 474.957,339.971 469.5,323.5C 461.611,297.751 452.111,272.751 441,248.5C 440.751,249.624 440.251,250.624 439.5,251.5C 422.149,260.506 405.149,270.006 388.5,280C 393.746,288.487 398.746,297.154 403.5,306C 403.272,306.399 402.938,306.565 402.5,306.5C 381.693,271.235 357.693,238.235 330.5,207.5C 344.998,181.165 359.998,155.165 375.5,129.5 Z"/></g>
<g><path style="opacity:1" fill="#d703d5" d="M 438.5,154.5 C 453.416,179.996 468.083,205.663 482.5,231.5C 482.631,232.239 482.464,232.906 482,233.5C 480.758,232.128 479.258,231.128 477.5,230.5C 475.818,245.493 475.151,260.326 475.5,275C 477.256,275.14 478.922,274.64 480.5,273.5C 481.574,290.946 483.574,308.279 486.5,325.5C 486.148,326.786 485.482,327.619 484.5,328C 494.811,359.076 503.644,390.576 511,422.5C 514.993,433.145 518.493,443.645 521.5,454C 526.047,462.545 532.047,469.878 539.5,476C 550.678,482.294 562.678,485.461 575.5,485.5C 574.657,481.478 572.99,477.812 570.5,474.5C 583.888,470.048 596.722,463.381 609,454.5C 610.179,457.26 612.012,459.26 614.5,460.5C 617,463.494 619,466.827 620.5,470.5C 619.883,470.389 619.383,470.056 619,469.5C 618.535,470.931 617.701,472.097 616.5,473C 606.025,479.879 594.692,484.713 582.5,487.5C 578.703,485.52 577.703,486.52 579.5,490.5C 557.445,492.092 539.278,484.425 525,467.5C 518.49,456.979 513.324,445.812 509.5,434C 491.789,362.573 470.789,292.573 446.5,224C 446.112,222.475 446.112,220.808 446.5,219C 436.892,198.597 433.725,177.43 437,155.5C 438.087,157.932 438.587,157.598 438.5,154.5 Z"/></g>
<g><path style="opacity:1" fill="#791ac4" d="M 326.5,214.5 C 365.698,253.421 396.365,298.421 418.5,349.5C 411.738,338.006 405.238,325.672 399,312.5C 398.833,325.5 398.667,338.5 398.5,351.5C 398.51,364.89 399.176,378.056 400.5,391C 399.584,391.278 398.918,391.778 398.5,392.5C 395.459,393.229 392.459,394.396 389.5,396C 387.024,399.145 384.69,402.312 382.5,405.5C 369.063,377.29 353.563,350.29 336,324.5C 322.626,306.959 307.126,291.626 289.5,278.5C 301.332,256.832 313.665,235.498 326.5,214.5 Z"/></g>
<g><path style="opacity:1" fill="#d103d1" d="M 482.5,231.5 C 527.255,307.335 571.255,383.669 614.5,460.5C 612.012,459.26 610.179,457.26 609,454.5C 596.722,463.381 583.888,470.048 570.5,474.5C 572.99,477.812 574.657,481.478 575.5,485.5C 562.678,485.461 550.678,482.294 539.5,476C 532.047,469.878 526.047,462.545 521.5,454C 518.493,443.645 514.993,433.145 511,422.5C 503.644,390.576 494.811,359.076 484.5,328C 485.482,327.619 486.148,326.786 486.5,325.5C 483.574,308.279 481.574,290.946 480.5,273.5C 478.922,274.64 477.256,275.14 475.5,275C 475.151,260.326 475.818,245.493 477.5,230.5C 479.258,231.128 480.758,232.128 482,233.5C 482.464,232.906 482.631,232.239 482.5,231.5 Z"/></g>
<g><path style="opacity:1" fill="#b224d5" d="M 469.5,323.5 C 454.366,331.568 439.366,339.901 424.5,348.5C 426.108,351.382 427.441,354.382 428.5,357.5C 428.376,358.107 428.043,358.44 427.5,358.5C 419.698,340.897 411.365,323.563 402.5,306.5C 402.938,306.565 403.272,306.399 403.5,306C 398.746,297.154 393.746,288.487 388.5,280C 405.149,270.006 422.149,260.506 439.5,251.5C 440.251,250.624 440.751,249.624 441,248.5C 452.111,272.751 461.611,297.751 469.5,323.5 Z"/></g>
<g><path style="opacity:1" fill="#5612b8" d="M 286.5,283.5 C 294.221,288.374 301.554,293.874 308.5,300C 327.959,319.428 344.126,341.262 357,365.5C 365.069,380.305 372.569,395.305 379.5,410.5C 375.335,418.836 370.668,426.836 365.5,434.5C 364.504,434.414 363.671,434.748 363,435.5C 362.252,437.332 361.252,438.999 360,440.5C 330.97,396.969 302.137,353.302 273.5,309.5C 274.946,307.382 275.613,305.049 275.5,302.5C 278.775,295.903 282.442,289.57 286.5,283.5 Z"/></g>
<g><path style="opacity:1" fill="#4d14b3" d="M 275.5,302.5 C 275.613,305.049 274.946,307.382 273.5,309.5C 302.137,353.302 330.97,396.969 360,440.5C 361.252,438.999 362.252,437.332 363,435.5C 363.671,434.748 364.504,434.414 365.5,434.5C 361.291,443.688 356.291,452.355 350.5,460.5C 336.752,429.943 319.919,401.276 300,374.5C 286.894,359.03 270.394,349.364 250.5,345.5C 258.442,330.903 266.775,316.569 275.5,302.5 Z"/></g>
<g><path style="opacity:1" fill="#801dc7" d="M 418.5,349.5 C 430.715,375.955 441.882,402.955 452,430.5C 464.432,460.716 480.432,488.716 500,514.5C 507.744,524.08 516.577,532.413 526.5,539.5C 526.103,540.525 525.437,540.692 524.5,540C 519.667,535.833 514.833,531.667 510,527.5C 509.5,543.83 509.333,560.163 509.5,576.5C 502.805,574.32 496.472,571.32 490.5,567.5C 489.893,567.624 489.56,567.957 489.5,568.5C 488.128,567.488 486.795,566.488 485.5,565.5C 492.951,563.12 496.618,557.953 496.5,550C 496.733,546.541 495.899,543.374 494,540.5C 465.959,492.251 437.793,444.085 409.5,396C 406.006,394.199 402.34,393.033 398.5,392.5C 398.918,391.778 399.584,391.278 400.5,391C 399.176,378.056 398.51,364.89 398.5,351.5C 398.667,338.5 398.833,325.5 399,312.5C 405.238,325.672 411.738,338.006 418.5,349.5 Z"/></g>
<g><path style="opacity:1" fill="#5711af" d="M 289.5,278.5 C 307.126,291.626 322.626,306.959 336,324.5C 353.563,350.29 369.063,377.29 382.5,405.5C 381.89,407.434 380.89,409.101 379.5,410.5C 372.569,395.305 365.069,380.305 357,365.5C 344.126,341.262 327.959,319.428 308.5,300C 301.554,293.874 294.221,288.374 286.5,283.5C 286.75,281.326 287.75,279.659 289.5,278.5 Z"/></g>
<g><path style="opacity:1" fill="#a921d2" d="M 469.5,323.5 C 474.957,339.971 480.124,356.638 485,373.5C 491.706,401.325 498.872,428.991 506.5,456.5C 505.733,457.172 505.066,458.005 504.5,459C 496.253,463.373 488.086,467.873 480,472.5C 480.843,476.69 482.676,480.524 485.5,484C 485.272,484.399 484.938,484.565 484.5,484.5C 474.393,468.624 465.559,451.957 458,434.5C 448.095,409.028 437.928,383.695 427.5,358.5C 428.043,358.44 428.376,358.107 428.5,357.5C 427.441,354.382 426.108,351.382 424.5,348.5C 439.366,339.901 454.366,331.568 469.5,323.5 Z"/></g>
<g><path style="opacity:1" fill="#951ecf" d="M 250.5,345.5 C 270.394,349.364 286.894,359.03 300,374.5C 319.919,401.276 336.752,429.943 350.5,460.5C 350.25,462.674 349.25,464.341 347.5,465.5C 339.062,446.623 329.562,428.29 319,410.5C 318.667,411.167 318.333,411.833 318,412.5C 295.167,393 272.333,373.5 249.5,354C 252.133,354.253 254.8,354.253 257.5,354C 254.649,352.711 251.649,352.211 248.5,352.5C 248.5,351.5 248.5,350.5 248.5,349.5C 248.66,347.847 249.326,346.514 250.5,345.5 Z"/></g>
<g><path style="opacity:1" fill="#881dca" d="M 248.5,349.5 C 248.5,350.5 248.5,351.5 248.5,352.5C 251.649,352.211 254.649,352.711 257.5,354C 254.8,354.253 252.133,354.253 249.5,354C 272.333,373.5 295.167,393 318,412.5C 318.333,411.833 318.667,411.167 319,410.5C 329.562,428.29 339.062,446.623 347.5,465.5C 343.59,474.326 338.923,482.659 333.5,490.5C 333.703,488.61 333.037,487.11 331.5,486C 295.001,455.665 258.668,425.165 222.5,394.5C 230.412,379.002 239.079,364.002 248.5,349.5 Z"/></g>
<g><path style="opacity:1" fill="#941fd0" d="M 330.5,207.5 C 357.693,238.235 381.693,271.235 402.5,306.5C 411.365,323.563 419.698,340.897 427.5,358.5C 437.928,383.695 448.095,409.028 458,434.5C 465.559,451.957 474.393,468.624 484.5,484.5C 497.837,509.672 516.837,529.505 541.5,544C 546.5,545.667 551.5,547.333 556.5,549C 565.5,549.667 574.5,549.667 583.5,549C 591.705,546.444 599.705,543.278 607.5,539.5C 608.265,540.66 609.265,541.66 610.5,542.5C 623.919,535.886 635.752,527.219 646,516.5C 646.383,517.056 646.883,517.389 647.5,517.5C 652.589,524.672 656.923,532.339 660.5,540.5C 649.751,552.029 637.418,561.362 623.5,568.5C 623.509,566.692 623.009,565.025 622,563.5C 618.07,556.629 613.903,549.962 609.5,543.5C 580.883,558.094 553.216,556.76 526.5,539.5C 516.577,532.413 507.744,524.08 500,514.5C 480.432,488.716 464.432,460.716 452,430.5C 441.882,402.955 430.715,375.955 418.5,349.5C 396.365,298.421 365.698,253.421 326.5,214.5C 327.079,211.669 328.412,209.336 330.5,207.5 Z"/></g>
<g><path style="opacity:1" fill="#7f1cc6" d="M 222.5,394.5 C 258.668,425.165 295.001,455.665 331.5,486C 333.037,487.11 333.703,488.61 333.5,490.5C 329.988,497.534 325.988,504.201 321.5,510.5C 309.783,491.948 294.783,476.448 276.5,464C 254.301,452.169 230.634,447.836 205.5,451C 199.319,452.538 193.319,453.704 187.5,454.5C 198.665,434.164 210.332,414.164 222.5,394.5 Z"/></g>
<g><path style="opacity:1" fill="#7319b9" d="M 321.5,510.5 C 321.008,512.819 320.008,514.819 318.5,516.5C 287.836,462.196 242.503,444.529 182.5,463.5C 183.774,460.24 185.44,457.24 187.5,454.5C 193.319,453.704 199.319,452.538 205.5,451C 230.634,447.836 254.301,452.169 276.5,464C 294.783,476.448 309.783,491.948 321.5,510.5 Z"/></g>
<g><path style="opacity:1" fill="#9e1ecf" d="M 506.5,456.5 C 509.899,465.966 514.399,474.966 520,483.5C 536.858,506.847 559.358,515.513 587.5,509.5C 589.39,509.297 590.89,509.963 592,511.5C 597.395,520.723 602.562,530.056 607.5,539.5C 599.705,543.278 591.705,546.444 583.5,549C 574.5,549.667 565.5,549.667 556.5,549C 551.5,547.333 546.5,545.667 541.5,544C 516.837,529.505 497.837,509.672 484.5,484.5C 484.938,484.565 485.272,484.399 485.5,484C 482.676,480.524 480.843,476.69 480,472.5C 488.086,467.873 496.253,463.373 504.5,459C 505.066,458.005 505.733,457.172 506.5,456.5 Z"/></g>
<g><path style="opacity:1" fill="#2c1094" d="M 318.5,516.5 C 314.931,523.302 311.098,529.969 307,536.5C 303.689,539.406 299.856,541.073 295.5,541.5C 289.916,539.705 283.916,538.871 277.5,539C 246.167,516.333 214.833,493.667 183.5,471C 181.845,469.556 181.178,467.722 181.5,465.5C 181.328,464.508 181.662,463.842 182.5,463.5C 242.503,444.529 287.836,462.196 318.5,516.5 Z"/></g>
<g><path style="opacity:1" fill="#2b108d" d="M 181.5,465.5 C 181.178,467.722 181.845,469.556 183.5,471C 214.833,493.667 246.167,516.333 277.5,539C 283.916,538.871 289.916,539.705 295.5,541.5C 272.5,541.5 249.5,541.5 226.5,541.5C 206.235,526.354 185.901,511.187 165.5,496C 166.38,494.644 166.714,493.144 166.5,491.5C 170.709,482.312 175.709,473.645 181.5,465.5 Z"/></g>
<g><path style="opacity:1" fill="#aa23d6" d="M 626.5,481.5 C 634.001,493.164 641.001,505.164 647.5,517.5C 646.883,517.389 646.383,517.056 646,516.5C 635.752,527.219 623.919,535.886 610.5,542.5C 609.265,541.66 608.265,540.66 607.5,539.5C 602.562,530.056 597.395,520.723 592,511.5C 590.89,509.963 589.39,509.297 587.5,509.5C 595.351,506.854 602.684,503.02 609.5,498C 615.109,492.221 620.776,486.721 626.5,481.5 Z"/></g>
<g><path style="opacity:0.99" fill="#2a0f87" d="M 166.5,491.5 C 166.714,493.144 166.38,494.644 165.5,496C 185.901,511.187 206.235,526.354 226.5,541.5C 204.831,541.667 183.164,541.5 161.5,541C 151.672,537.144 147.839,529.977 150,519.5C 154.77,509.609 160.27,500.276 166.5,491.5 Z"/></g>
<g><path style="opacity:1" fill="#861bc9" d="M 526.5,539.5 C 553.216,556.76 580.883,558.094 609.5,543.5C 613.903,549.962 618.07,556.629 622,563.5C 623.009,565.025 623.509,566.692 623.5,568.5C 623.5,568.833 623.5,569.167 623.5,569.5C 599.035,583.558 572.701,589.558 544.5,587.5C 524.539,585.736 506.206,579.403 489.5,568.5C 489.56,567.957 489.893,567.624 490.5,567.5C 496.472,571.32 502.805,574.32 509.5,576.5C 509.333,560.163 509.5,543.83 510,527.5C 514.833,531.667 519.667,535.833 524.5,540C 525.437,540.692 526.103,540.525 526.5,539.5 Z"/></g>
<g><path style="opacity:1" fill="#8414ce" d="M 660.5,540.5 C 668.335,552.832 675.668,565.498 682.5,578.5C 671.655,589.007 659.655,598.007 646.5,605.5C 640.418,595 634.084,584.666 627.5,574.5C 627.33,571.796 625.997,570.129 623.5,569.5C 623.5,569.167 623.5,568.833 623.5,568.5C 637.418,561.362 649.751,552.029 660.5,540.5 Z"/></g>
<g><path style="opacity:0.998" fill="#7819c3" d="M 347.5,566.5 C 369.833,566.5 392.167,566.5 414.5,566.5C 414.5,566.833 414.5,567.167 414.5,567.5C 403.162,567.333 391.828,567.5 380.5,568C 382.5,568.333 384.5,568.667 386.5,569C 428.5,604.667 470.5,640.333 512.5,676C 511.263,676.232 510.263,676.732 509.5,677.5C 472.227,672.879 438.894,659.212 409.5,636.5C 406.972,637.517 406.972,638.684 409.5,640C 415.66,644.58 421.993,648.914 428.5,653C 429.738,653.69 429.738,654.19 428.5,654.5C 405.323,639.825 385.49,621.492 369,599.5C 361.325,588.813 354.158,577.813 347.5,566.5 Z"/></g>
<g><path style="opacity:1" fill="#811bc7" d="M 414.5,567.5 C 429.78,586.12 447.78,601.453 468.5,613.5C 467.262,613.81 467.262,614.31 468.5,615C 473.167,617.333 477.833,619.667 482.5,622C 482.335,623.117 482.002,624.284 481.5,625.5C 499.182,633.921 517.849,638.587 537.5,639.5C 544.655,640.329 551.989,640.829 559.5,641C 557.5,641.333 555.5,641.667 553.5,642C 567.856,654.385 580.856,665.551 592.5,675.5C 592.5,675.833 592.5,676.167 592.5,676.5C 577.255,678.399 561.922,679.732 546.5,680.5C 534.05,680.657 521.717,679.657 509.5,677.5C 510.263,676.732 511.263,676.232 512.5,676C 470.5,640.333 428.5,604.667 386.5,569C 384.5,568.667 382.5,568.333 380.5,568C 391.828,567.5 403.162,567.333 414.5,567.5 Z"/></g>
<g><path style="opacity:1" fill="#5111b6" d="M 414.5,567.5 C 414.5,567.167 414.5,566.833 414.5,566.5C 431.167,566.5 447.833,566.5 464.5,566.5C 466.631,567.314 468.964,567.814 471.5,568C 470.376,568.249 469.376,568.749 468.5,569.5C 483.063,590.915 496.063,610.581 507.5,628.5C 493.744,625.455 480.744,620.455 468.5,613.5C 447.78,601.453 429.78,586.12 414.5,567.5 Z"/></g>
<g><path style="opacity:1" fill="#5c10bb" d="M 485.5,565.5 C 486.795,566.488 488.128,567.488 489.5,568.5C 506.206,579.403 524.539,585.736 544.5,587.5C 551.321,588.329 558.321,588.829 565.5,589C 561.735,590.377 562.068,591.377 566.5,592C 565.167,592.333 563.833,592.667 562.5,593C 551.133,593.208 539.8,592.875 528.5,592C 537.362,604.697 546.029,617.53 554.5,630.5C 557.977,631.167 561.311,631.834 564.5,632.5C 552.852,633.528 541.185,633.695 529.5,633C 521.893,632.183 514.56,630.683 507.5,628.5C 496.063,610.581 483.063,590.915 468.5,569.5C 469.376,568.749 470.376,568.249 471.5,568C 468.964,567.814 466.631,567.314 464.5,566.5C 471.588,566.795 478.588,566.462 485.5,565.5 Z"/></g>
<g><path style="opacity:0.994" fill="#2a0e8c" d="M 347.5,566.5 C 354.158,577.813 361.325,588.813 369,599.5C 385.49,621.492 405.323,639.825 428.5,654.5C 439.459,661.479 451.125,667.145 463.5,671.5C 462.402,672.397 462.402,673.23 463.5,674C 480.683,686.363 497.683,698.863 514.5,711.5C 496.5,711.5 478.5,711.5 460.5,711.5C 408.75,672.758 356.417,634.758 303.5,597.5C 308.104,587.128 314.104,577.628 321.5,569C 322.833,568.333 324.167,567.667 325.5,567C 332.826,566.5 340.159,566.334 347.5,566.5 Z"/></g>
<g><path style="opacity:1" fill="#6e0fc4" d="M 627.5,574.5 C 634.084,584.666 640.418,595 646.5,605.5C 631.109,614.633 614.775,621.633 597.5,626.5C 595.332,625.37 592.998,625.37 590.5,626.5C 588.971,626.471 587.804,625.804 587,624.5C 580.291,614.247 573.457,604.08 566.5,594C 588.024,590.991 608.357,584.491 627.5,574.5 Z"/></g>
<g><path style="opacity:1" fill="#a222d5" d="M 682.5,578.5 C 690.669,591.499 698.335,604.832 705.5,618.5C 706.413,620.086 706.413,621.586 705.5,623C 693.984,631.59 681.984,639.424 669.5,646.5C 662.528,634.517 655.528,622.517 648.5,610.5C 614.334,631.087 577.334,640.754 537.5,639.5C 517.849,638.587 499.182,633.921 481.5,625.5C 482.002,624.284 482.335,623.117 482.5,622C 477.833,619.667 473.167,617.333 468.5,615C 467.262,614.31 467.262,613.81 468.5,613.5C 480.744,620.455 493.744,625.455 507.5,628.5C 514.56,630.683 521.893,632.183 529.5,633C 541.185,633.695 552.852,633.528 564.5,632.5C 575.688,631.469 586.688,629.469 597.5,626.5C 614.775,621.633 631.109,614.633 646.5,605.5C 659.655,598.007 671.655,589.007 682.5,578.5 Z"/></g>
<g><path style="opacity:1" fill="#6710c0" d="M 623.5,569.5 C 625.997,570.129 627.33,571.796 627.5,574.5C 608.357,584.491 588.024,590.991 566.5,594C 573.457,604.08 580.291,614.247 587,624.5C 587.804,625.804 588.971,626.471 590.5,626.5C 592.998,625.37 595.332,625.37 597.5,626.5C 586.688,629.469 575.688,631.469 564.5,632.5C 561.311,631.834 557.977,631.167 554.5,630.5C 546.029,617.53 537.362,604.697 528.5,592C 539.8,592.875 551.133,593.208 562.5,593C 563.833,592.667 565.167,592.333 566.5,592C 562.068,591.377 561.735,590.377 565.5,589C 558.321,588.829 551.321,588.329 544.5,587.5C 572.701,589.558 599.035,583.558 623.5,569.5 Z"/></g>
<g><path style="opacity:0.999" fill="#280d86" d="M 303.5,597.5 C 356.417,634.758 408.75,672.758 460.5,711.5C 458.5,711.5 456.5,711.5 454.5,711.5C 434.671,710.668 414.671,710.168 394.5,710C 404.833,709.667 415.167,709.333 425.5,709C 419.167,708.667 412.833,708.333 406.5,708C 367.553,680.053 328.886,651.72 290.5,623C 292.016,621.103 292.683,618.936 292.5,616.5C 295.412,609.668 299.079,603.334 303.5,597.5 Z"/></g>
<g><path style="opacity:1" fill="#901ccd" d="M 669.5,646.5 C 645.47,660.534 619.804,670.2 592.5,675.5C 580.856,665.551 567.856,654.385 553.5,642C 555.5,641.667 557.5,641.333 559.5,641C 551.989,640.829 544.655,640.329 537.5,639.5C 577.334,640.754 614.334,631.087 648.5,610.5C 655.528,622.517 662.528,634.517 669.5,646.5 Z"/></g>
<g><path style="opacity:1" fill="#290f82" d="M 292.5,616.5 C 292.683,618.936 292.016,621.103 290.5,623C 328.886,651.72 367.553,680.053 406.5,708C 412.833,708.333 419.167,708.667 425.5,709C 415.167,709.333 404.833,709.667 394.5,710C 414.671,710.168 434.671,710.668 454.5,711.5C 390.832,711.667 327.166,711.5 263.5,711C 252.092,707.017 247.925,699.184 251,687.5C 264.355,663.442 278.189,639.775 292.5,616.5 Z"/></g>
<g><path style="opacity:1" fill="#3c18b4" d="M 711.5,628.5 C 723.563,648.574 735.23,668.907 746.5,689.5C 746.577,693.215 746.244,696.881 745.5,700.5C 743.725,705.943 740.058,709.276 734.5,710.5C 725.167,710.5 715.833,710.5 706.5,710.5C 695.665,691.495 684.831,672.495 674,653.5C 673.329,652.748 672.496,652.414 671.5,652.5C 684.718,644.966 697.218,636.299 709,626.5C 709.708,627.381 710.542,628.047 711.5,628.5 Z"/></g>
<g><path style="opacity:1" fill="#871cbb" d="M 705.5,618.5 C 708,621.494 710,624.827 711.5,628.5C 710.542,628.047 709.708,627.381 709,626.5C 697.218,636.299 684.718,644.966 671.5,652.5C 645.046,667.555 616.713,677.221 586.5,681.5C 588.884,679.669 591.551,678.169 594.5,677C 593.906,676.536 593.239,676.369 592.5,676.5C 592.5,676.167 592.5,675.833 592.5,675.5C 619.804,670.2 645.47,660.534 669.5,646.5C 681.984,639.424 693.984,631.59 705.5,623C 706.413,621.586 706.413,620.086 705.5,618.5 Z"/></g>
<g><path style="opacity:1" fill="#3011a0" d="M 671.5,652.5 C 672.496,652.414 673.329,652.748 674,653.5C 684.831,672.495 695.665,691.495 706.5,710.5C 664.499,710.667 622.499,710.5 580.5,710C 598.5,709.667 616.5,709.333 634.5,709C 623.167,700.667 611.833,692.333 600.5,684C 595.86,682.948 591.194,682.448 586.5,682.5C 586.5,682.167 586.5,681.833 586.5,681.5C 616.713,677.221 645.046,667.555 671.5,652.5 Z"/></g>
<g><path style="opacity:1" fill="#7318b9" d="M 509.5,677.5 C 521.717,679.657 534.05,680.657 546.5,680.5C 561.922,679.732 577.255,678.399 592.5,676.5C 593.239,676.369 593.906,676.536 594.5,677C 591.551,678.169 588.884,679.669 586.5,681.5C 586.5,681.833 586.5,682.167 586.5,682.5C 568.208,684.118 549.875,684.785 531.5,684.5C 508.202,683.395 485.535,679.062 463.5,671.5C 451.125,667.145 439.459,661.479 428.5,654.5C 429.738,654.19 429.738,653.69 428.5,653C 421.993,648.914 415.66,644.58 409.5,640C 406.972,638.684 406.972,637.517 409.5,636.5C 438.894,659.212 472.227,672.879 509.5,677.5 Z"/></g>
<g><path style="opacity:0.976" fill="#2b0f92" d="M 463.5,671.5 C 485.535,679.062 508.202,683.395 531.5,684.5C 541.992,685.33 552.659,685.83 563.5,686C 554.167,686.333 544.833,686.667 535.5,687C 546.415,694.945 557.082,703.111 567.5,711.5C 549.833,711.5 532.167,711.5 514.5,711.5C 497.683,698.863 480.683,686.363 463.5,674C 462.402,673.23 462.402,672.397 463.5,671.5 Z"/></g>
<g><path style="opacity:0.996" fill="#381a9d" d="M 586.5,682.5 C 591.194,682.448 595.86,682.948 600.5,684C 611.833,692.333 623.167,700.667 634.5,709C 616.5,709.333 598.5,709.667 580.5,710C 622.499,710.5 664.499,710.667 706.5,710.5C 715.833,710.5 725.167,710.5 734.5,710.5C 679.002,711.499 623.336,711.832 567.5,711.5C 557.082,703.111 546.415,694.945 535.5,687C 544.833,686.667 554.167,686.333 563.5,686C 552.659,685.83 541.992,685.33 531.5,684.5C 549.875,684.785 568.208,684.118 586.5,682.5 Z"/></g>
<g><path style="opacity:0.341" fill="#8e79d2" d="M 746.5,689.5 C 747.158,690.793 747.492,692.293 747.5,694C 747.664,696.544 746.997,698.71 745.5,700.5C 746.244,696.881 746.577,693.215 746.5,689.5 Z"/></g>
</svg>
